<svg clip-rule="evenodd" fill-rule="evenodd" stroke-linejoin="round" stroke-miterlimit="2" viewBox="0 0 48 48" xmlns="http://www.w3.org/2000/svg"><path d="m0 2.435h47.72v42.947h-47.72z" fill="none"/><g fill="#5342f1" fill-rule="nonzero"><path d="m12.826 16.962c0 2.442-1.936 4.42-4.324 4.42s-4.324-1.978-4.324-4.42c0-2.44 1.936-4.419 4.324-4.419s4.324 1.979 4.324 4.419"/><path d="m29.519 9.64c0 2.44-1.936 4.418-4.324 4.418s-4.324-1.978-4.324-4.418c0-2.442 1.936-4.421 4.324-4.421s4.324 1.979 4.324 4.421"/><path d="m44.12 18.771c0 2.439-1.936 4.419-4.324 4.419s-4.324-1.98-4.324-4.42 1.936-4.42 4.324-4.42 4.324 1.98 4.324 4.42"/><path d="m8.317 33.846c0-2.947 2.622-5.554 6.65-7.159-1.416-2.519-3.738-4.167-6.372-4.167-4.314 0-7.811 4.413-7.811 9.859 0 5.444 3.497 9.859 7.811 9.859 1.767 0 3.391-.75 4.7-1.998-3.065-1.609-4.978-3.878-4.978-6.394"/><path d="m32.767 26.325c.059-.491.1-.989.1-1.5 0-5.445-3.497-9.859-7.811-9.859s-7.812 4.414-7.812 9.859c0 .369.019.732.05 1.09 2.132-.577 4.529-.901 7.064-.901 3.084 0 5.964.48 8.409 1.311"/><path d="m39.656 24.096c-2.114 0-4.029 1.064-5.435 2.787 3.758 1.616 6.178 4.133 6.178 6.964 0 2.863-2.475 5.406-6.309 7.02 1.417 1.818 3.387 2.947 5.566 2.947 4.315 0 7.812-4.414 7.812-9.859 0-5.444-3.497-9.859-7.812-9.859"/></g></svg>